<?xml version="1.0" standalone="no"?>
<!DOCTYPE svg PUBLIC "-//W3C//DTD SVG 20010904//EN"
 "http://www.w3.org/TR/2001/REC-SVG-20010904/DTD/svg10.dtd">
<svg version="1.0" xmlns="http://www.w3.org/2000/svg"
 width="340.000000pt" height="340.000000pt" viewBox="0 0 340.000000 340.000000"
 preserveAspectRatio="xMidYMid meet">
<metadata>
Created by potrace 1.11, written by Peter Selinger 2001-2013
</metadata>
<g transform="translate(0.000000,340.000000) scale(0.100000,-0.100000)"
fill="#000000" stroke="none">
<path d="M1520 3335 c-8 -2 -50 -9 -92 -16 -53 -8 -78 -16 -78 -25 0 -8 5 -14
12 -14 6 0 3 -7 -8 -15 -23 -17 -38 -19 -28 -4 4 8 0 9 -15 4 -30 -9 -26 4 5
16 36 13 24 22 -19 14 -24 -5 -34 -11 -30 -21 4 -10 -4 -12 -36 -8 -32 4 -39
2 -35 -9 3 -8 -1 -18 -8 -24 -17 -13 -100 -24 -92 -12 11 19 -16 8 -43 -17
-20 -18 -22 -24 -10 -20 63 20 69 16 20 -14 -29 -17 -53 -38 -53 -46 0 -8 -5
-14 -12 -14 -6 0 -20 -7 -30 -16 -14 -13 -21 -14 -32 -5 -11 9 -15 8 -19 -3
-8 -21 0 -24 58 -22 42 1 51 5 62 25 6 14 27 33 45 43 20 12 24 16 11 13 -26
-7 -30 7 -8 25 8 7 15 9 15 5 0 -5 8 -2 18 6 17 14 96 18 109 6 6 -7 -31 -23
-75 -33 -26 -5 -26 -5 -8 10 11 9 15 16 10 16 -16 0 -33 -21 -28 -35 3 -7 -6
-21 -19 -32 -20 -15 -22 -22 -13 -38 6 -11 12 -22 13 -23 1 -2 15 4 32 14 27
16 28 19 13 31 -16 12 -16 14 3 29 32 26 104 56 117 48 6 -4 26 -8 45 -10 46
-4 50 -8 46 -46 -3 -23 -1 -29 5 -20 8 11 14 9 31 -9 26 -28 28 -66 4 -72 -17
-4 -17 -4 1 -12 10 -4 30 -19 44 -32 19 -18 23 -26 14 -35 -7 -7 -12 -8 -12
-3 0 6 -4 5 -8 -2 -4 -6 -19 -14 -33 -18 -23 -6 -27 -3 -33 19 -3 14 -10 26
-15 26 -17 0 -20 -29 -6 -44 19 -19 19 -40 0 -56 -13 -10 -19 -10 -33 4 -25
22 -35 20 -20 -4 19 -29 4 -34 -40 -11 -25 13 -42 29 -46 46 -5 21 -12 25 -41
25 -37 0 -55 17 -34 32 12 8 11 9 -1 5 -8 -2 -17 -14 -18 -26 -2 -15 0 -21 7
-17 6 4 11 3 11 -3 0 -17 -18 -22 -32 -8 -7 8 -20 12 -29 10 -9 -3 -20 0 -23
6 -5 7 -15 7 -32 1 -26 -10 -44 -6 -44 11 0 5 5 9 10 9 6 0 20 9 32 20 28 26
15 26 -20 1 -15 -11 -38 -21 -52 -23 -14 -2 -27 -5 -30 -8 -3 -3 -23 -14 -44
-25 -53 -27 -103 -74 -88 -84 7 -4 8 -12 2 -21 -11 -17 -13 -37 -4 -27 4 3 14
2 24 -3 14 -8 16 -5 12 16 -5 30 30 69 92 102 41 22 52 20 74 -10 7 -10 22
-18 32 -18 20 0 36 -33 24 -51 -4 -8 -3 -9 4 -5 7 4 12 13 12 21 0 8 6 18 13
22 8 4 17 16 20 26 5 13 13 16 26 12 11 -3 22 -1 26 5 3 5 17 10 30 10 16 0
25 -7 29 -25 9 -34 80 -71 110 -57 12 6 29 13 39 16 11 3 21 14 24 24 3 11 24
26 54 36 27 10 55 27 63 37 12 18 13 18 24 -6 6 -14 17 -24 24 -23 7 2 19 -22
29 -58 9 -33 22 -70 28 -82 26 -49 -30 -237 -94 -313 -21 -25 -22 -26 -33 -8
-7 11 -20 18 -30 18 -16 -1 -16 -2 1 -6 12 -3 17 -14 17 -36 0 -41 -12 -59
-33 -51 -9 3 -14 10 -11 15 3 5 1 9 -5 9 -5 0 -13 -5 -16 -10 -4 -6 -11 -7
-17 -4 -6 4 -5 10 3 15 10 6 2 9 -21 9 -46 0 -62 12 -54 36 7 18 6 18 -12 1
-10 -9 -19 -29 -19 -45 -1 -23 -7 -28 -41 -35 -21 -5 -57 -15 -79 -23 -46 -16
-71 -3 -39 21 17 13 17 14 2 15 -10 0 -42 -9 -73 -21 -39 -15 -55 -26 -55 -39
0 -10 6 -20 12 -22 7 -3 -13 -8 -45 -11 -58 -7 -75 -18 -122 -82 -15 -19 -15
-19 -11 8 3 15 1 25 -4 22 -4 -3 -6 -25 -3 -49 4 -40 2 -45 -24 -55 -33 -14
-57 -27 -101 -59 -33 -24 -33 -24 -31 -103 3 -96 -12 -123 -36 -64 -9 21 -14
47 -11 59 5 22 -16 60 -28 49 -3 -4 -12 1 -19 9 -6 9 -29 18 -49 20 -31 3 -35
1 -28 -12 6 -12 4 -16 -11 -17 -10 -1 -19 2 -19 6 0 5 -10 11 -22 14 -31 9
-87 -28 -94 -61 -3 -15 -9 -46 -15 -69 -14 -65 -11 -115 11 -150 26 -44 63
-42 85 4 14 30 57 54 71 40 7 -7 -17 -87 -25 -83 -3 2 -7 -14 -9 -35 l-2 -39
38 0 c54 0 62 -13 55 -80 -7 -75 14 -112 63 -108 19 1 40 -5 51 -14 20 -19 53
-8 53 17 0 16 34 38 43 28 4 -3 18 2 31 11 14 9 28 12 31 7 3 -5 1 -12 -5 -16
-5 -3 -10 -10 -10 -15 0 -12 32 0 42 14 5 7 8 7 8 -1 0 -7 7 -13 15 -13 8 0
15 -7 15 -15 0 -10 10 -15 29 -15 17 0 32 -4 35 -9 3 -5 25 -7 48 -4 26 4 39
2 35 -4 -4 -6 5 -15 19 -22 14 -6 22 -16 19 -21 -3 -6 -2 -10 4 -10 5 0 28
-18 51 -41 25 -25 53 -42 71 -44 38 -5 109 -55 109 -78 0 -9 6 -26 13 -38 11
-18 8 -23 -23 -49 -36 -31 -31 -41 7 -15 21 14 28 13 88 -12 45 -19 64 -33 62
-43 -3 -10 5 -16 22 -17 57 -4 89 -16 125 -49 20 -19 43 -34 50 -34 19 0 26
-46 10 -68 -7 -11 -36 -37 -64 -58 -35 -27 -50 -45 -50 -62 0 -30 -33 -101
-60 -130 -14 -15 -28 -21 -41 -17 -11 4 -41 -3 -69 -16 -43 -19 -50 -27 -50
-51 0 -18 -8 -33 -25 -44 -14 -9 -31 -28 -38 -43 -11 -23 -18 -26 -56 -24
l-44 2 21 -20 c28 -25 18 -49 -20 -49 -22 0 -29 -4 -25 -14 9 -22 -64 -12
-113 15 -32 18 -43 31 -51 63 -5 23 -16 62 -24 87 -8 26 -15 57 -15 70 0 12
-4 36 -9 53 -6 17 -15 56 -21 86 -11 51 -17 59 -77 104 -35 27 -71 63 -80 80
-9 17 -43 71 -75 120 -53 80 -58 90 -44 104 14 14 14 17 -1 27 -19 14 -9 73
13 82 8 3 14 11 14 17 0 7 6 18 12 24 16 16 11 77 -8 120 -17 37 -31 41 -42
11 -7 -19 -9 -19 -21 -5 -8 9 -18 16 -23 16 -16 0 -65 58 -72 84 -3 14 -13 31
-21 39 -8 8 -11 18 -7 22 4 5 2 5 -4 2 -7 -4 -23 2 -37 13 -14 11 -30 20 -35
20 -5 0 -15 14 -22 31 -10 24 -18 29 -34 25 -13 -3 -34 6 -63 30 -56 46 -66
65 -75 144 -3 36 -13 103 -21 150 -8 47 -12 91 -10 98 3 6 2 20 -2 30 -7 16
-8 15 -15 -3 -4 -11 -6 21 -4 70 2 52 9 106 18 127 18 43 22 72 6 48 -19 -28
-88 -255 -107 -345 -25 -125 -25 -480 -1 -610 40 -211 148 -466 270 -641 110
-155 263 -307 418 -413 356 -244 776 -337 1194 -266 179 30 291 66 461 149
288 140 525 361 699 652 58 98 75 138 29 69 -14 -22 -57 -74 -93 -115 -37 -41
-76 -89 -86 -106 -83 -137 -112 -165 -199 -193 -38 -12 -92 -30 -120 -40 -50
-19 -127 -45 -177 -61 -21 -6 -26 -5 -21 6 3 8 9 14 13 14 4 0 13 21 20 46 8
26 26 60 42 76 15 16 28 32 28 37 0 4 11 14 25 21 14 7 37 34 52 59 21 38 26
60 27 126 2 70 6 85 30 122 33 50 29 79 -12 79 -19 -1 -26 3 -24 15 5 33 -24
43 -96 32 -43 -7 -74 -7 -86 -1 -10 6 -38 7 -61 3 -42 -6 -45 -4 -89 41 -32
32 -46 55 -46 74 0 15 -9 35 -20 45 -12 10 -18 25 -16 32 3 7 0 12 -7 10 -7
-1 -12 10 -13 29 -1 17 -4 36 -8 43 -4 6 -2 11 3 11 25 0 53 114 36 152 -5 13
5 33 34 70 76 96 96 118 111 118 30 0 60 30 60 59 0 30 40 81 62 81 8 0 21 12
30 28 18 31 8 57 -27 63 -23 5 -37 54 -27 94 5 16 5 44 2 62 -9 41 7 46 90 26
34 -8 64 -12 66 -10 3 2 5 20 6 39 1 36 -33 88 -59 88 -12 0 -14 4 -13 28 1 4
12 6 26 5 19 -2 24 2 20 12 -6 18 5 20 21 4 9 -9 16 -8 27 4 9 9 16 19 16 24
0 9 -101 9 -125 -1 -20 -7 -19 3 2 26 15 17 15 18 0 18 -10 0 -17 5 -17 10 0
6 4 10 9 10 5 0 7 9 4 20 -4 16 -2 19 11 14 9 -3 16 -2 16 2 -1 15 -26 44 -39
44 -6 0 -11 7 -11 16 0 8 -4 12 -10 9 -8 -5 -15 19 -7 28 1 1 -8 13 -20 27
-13 13 -20 26 -17 29 3 3 9 -1 13 -8 6 -9 11 -10 15 -2 4 6 16 11 27 11 11 0
18 -4 14 -9 -3 -5 4 -13 16 -16 16 -5 19 -12 15 -30 -4 -15 -1 -25 9 -29 8 -3
15 -11 15 -19 0 -7 18 -32 41 -55 32 -34 38 -46 29 -57 -9 -10 -7 -15 9 -20
26 -8 41 1 41 25 0 18 33 36 58 32 8 -2 5 13 -10 43 -21 42 -21 46 -5 62 20
20 24 17 29 -19 5 -34 12 -42 26 -26 7 10 1 26 -22 61 -29 45 -32 47 -44 28
-12 -17 -18 -18 -38 -9 -13 6 -24 16 -24 22 0 6 -6 22 -13 36 -26 49 -26 58
-1 92 23 30 25 40 20 106 -4 60 -2 76 12 90 22 22 36 21 62 0 11 -10 22 -18
25 -18 10 0 93 -61 119 -89 31 -32 30 -54 -1 -30 -13 10 -11 6 4 -17 28 -40
52 -60 49 -42 -1 7 -4 18 -8 23 -3 6 -9 25 -13 43 -5 24 -34 60 -98 125 -238
239 -516 388 -849 456 -123 25 -166 29 -308 29 -91 0 -172 -1 -180 -3z m225
-37 c7 -9 41 -13 120 -13 84 0 119 -5 148 -18 20 -10 37 -22 37 -27 0 -6 15
-10 34 -10 33 0 57 -15 36 -22 -6 -2 -13 -15 -15 -29 -4 -20 1 -29 21 -40 l26
-14 -23 -6 c-16 -5 -18 -7 -7 -8 10 -1 20 -12 24 -27 4 -17 9 -22 14 -14 5 8
10 8 14 2 3 -5 -1 -13 -10 -16 -8 -3 -12 -10 -9 -16 3 -6 -4 -10 -17 -10 -13
0 -18 -4 -13 -8 9 -6 35 -56 35 -67 0 -11 -29 -4 -40 10 -14 17 -30 20 -30 6
0 -5 14 -14 31 -21 l31 -13 -31 -13 c-16 -7 -55 -15 -85 -17 -37 -4 -61 -12
-75 -26 -12 -12 -29 -21 -38 -21 -35 0 -93 -21 -93 -34 0 -7 -9 -21 -20 -31
-12 -11 -27 -33 -35 -49 -17 -36 -60 -46 -68 -15 -3 13 -12 17 -29 14 -20 -4
-27 3 -47 46 -12 28 -20 53 -17 56 3 3 -1 20 -8 37 -7 17 -11 38 -8 46 8 25
34 50 53 50 10 0 20 4 23 9 3 5 -9 8 -27 7 -36 -1 -44 19 -15 38 13 8 23 8 38
-2 19 -11 19 -11 9 6 -7 11 -20 17 -29 15 -22 -6 -35 13 -15 21 21 8 19 69 -3
89 -9 9 -35 18 -56 20 -28 3 -40 9 -42 21 -2 12 2 16 13 12 13 -5 13 -4 4 8
-9 11 -7 15 11 20 13 3 37 6 54 6 20 0 34 6 38 16 5 12 2 15 -11 9 -10 -3 -36
-9 -58 -11 -22 -3 -45 -10 -52 -15 -6 -6 -26 -12 -44 -14 -18 -3 -36 -9 -39
-15 -5 -7 -25 -9 -59 -4 -54 7 -80 24 -37 24 19 0 26 5 26 18 0 40 102 63 255
57 67 -2 102 -8 110 -17z m-431 -70 c-1 -14 6 -18 38 -18 27 0 38 -4 35 -12
-3 -9 -23 -12 -68 -10 -73 4 -81 8 -56 27 22 16 10 26 -18 14 -12 -4 -14 -8
-5 -8 12 -1 12 -3 1 -13 -10 -10 -15 -10 -18 -1 -2 7 -11 9 -20 6 -13 -5 -14
-3 -4 16 10 18 19 21 64 19 42 -3 52 -6 51 -20z m1118 -82 c10 -7 15 -16 11
-19 -3 -4 2 -9 11 -13 9 -3 16 -12 16 -20 0 -8 5 -14 11 -14 5 0 7 5 4 10 -10
17 12 11 26 -7 12 -15 12 -16 -3 -10 -9 3 -18 1 -20 -5 -2 -6 -17 0 -33 13
-17 13 -47 33 -68 44 -33 16 -36 20 -20 26 27 11 46 10 65 -5z m-1410 -68 c-6
-6 -19 -8 -28 -4 -16 6 -16 8 6 20 26 13 40 2 22 -16z m14 -183 c-10 -8 -23
-12 -28 -9 -14 9 2 24 25 24 21 -1 21 -1 3 -15z m44 -14 c0 -12 -20 -25 -27
-18 -7 7 6 27 18 27 5 0 9 -4 9 -9z m1102 -58 c10 -9 18 -12 18 -7 0 8 36 10
88 5 6 0 12 -7 12 -15 0 -8 8 -17 17 -20 14 -6 15 -9 2 -20 -28 -26 -75 -35
-104 -20 -15 8 -34 14 -41 14 -8 0 -13 6 -11 13 1 6 -4 11 -10 10 -20 -4 -15
15 5 20 12 3 10 5 -7 6 -20 1 -21 3 -11 16 16 19 19 19 42 -2z m347 -377 c7
-8 8 -17 3 -20 -5 -3 -7 -18 -4 -34 3 -26 1 -30 -27 -34 -40 -6 -55 4 -46 31
3 11 2 21 -3 21 -5 0 -9 7 -9 15 0 8 6 15 14 15 7 0 13 5 13 10 0 15 46 12 59
-4z m-1175 -91 c6 -7 18 -15 26 -18 9 -3 -16 -19 -62 -41 -85 -40 -202 -63
-261 -52 -33 6 -37 10 -37 36 0 24 5 31 26 36 21 5 31 2 45 -17 17 -23 19 -24
47 -7 16 10 49 20 73 24 59 9 79 21 79 45 0 18 4 20 27 14 15 -3 32 -12 37
-20z m-1195 -342 c0 -32 -3 -42 -8 -29 -7 18 -3 76 5 76 2 0 4 -21 3 -47z m8
-135 c-3 -7 -5 -2 -5 12 0 14 2 19 5 13 2 -7 2 -19 0 -25z m466 -69 c12 -7 24
-15 27 -18 3 -3 22 -17 42 -31 21 -14 38 -28 38 -32 0 -5 7 -8 15 -8 8 0 15
-4 15 -10 0 -5 -18 -10 -41 -10 -28 0 -39 4 -37 12 6 17 -20 42 -59 57 -18 8
-30 17 -27 22 7 12 -3 11 -27 -2 -29 -15 -45 -6 -25 14 20 20 48 22 79 6z
m252 -143 l30 -21 -45 -6 c-25 -4 -50 -2 -57 3 -6 5 -19 8 -29 6 -9 -2 -19 2
-21 9 -3 7 3 9 18 6 18 -5 21 -3 17 13 -4 17 -1 20 26 16 17 -3 45 -14 61 -26z
m-169 -8 c4 -5 -4 -8 -17 -6 -12 1 -24 8 -26 15 -5 14 34 6 43 -9z m260 -37
c-3 -5 -15 -7 -26 -4 -28 7 -25 13 6 13 14 0 23 -4 20 -9z"/>
<path d="M1698 3283 c6 -2 18 -2 25 0 6 3 1 5 -13 5 -14 0 -19 -2 -12 -5z"/>
<path d="M2090 3031 c0 -5 8 -15 18 -22 15 -12 16 -12 5 2 -7 9 -10 19 -6 22
3 4 1 7 -5 7 -7 0 -12 -4 -12 -9z"/>
<path d="M874 3126 c-10 -8 -16 -18 -11 -22 4 -4 13 0 20 9 6 8 23 18 37 20
l25 4 -26 2 c-14 0 -34 -5 -45 -13z"/>
<path d="M842 3081 c-11 -6 -9 -9 7 -14 11 -3 25 1 32 9 9 11 8 14 -7 14 -11
0 -25 -4 -32 -9z"/>
<path d="M1195 3062 c3 -8 -3 -16 -15 -19 -11 -3 -20 -11 -20 -18 0 -17 -76
-45 -88 -33 -13 13 -10 -5 6 -42 6 -14 11 -18 11 -10 1 17 94 64 99 49 2 -5
11 -16 19 -25 14 -14 17 -14 24 -1 5 8 20 18 34 21 27 7 31 22 14 46 -8 12 -9
11 -5 -5 5 -18 1 -21 -31 -23 -36 -2 -37 -1 -19 13 11 8 23 15 27 15 4 0 7 9
6 19 -1 14 -10 20 -34 23 -26 3 -32 1 -28 -10z m45 -6 c0 -3 -4 -8 -10 -11 -5
-3 -10 -1 -10 4 0 6 5 11 10 11 6 0 10 -2 10 -4z"/>
<path d="M729 3033 c-13 -15 -12 -15 9 -4 23 12 28 21 13 21 -5 0 -15 -7 -22
-17z"/>
<path d="M640 2925 c-15 -8 -19 -14 -10 -14 18 -1 46 16 40 23 -3 2 -16 -2
-30 -9z"/>
<path d="M1216 2795 c-3 -9 -6 -22 -5 -28 0 -7 5 -1 10 12 5 13 8 26 5 28 -2
2 -6 -3 -10 -12z"/>
<path d="M1022 2750 c0 -14 2 -19 5 -12 2 6 2 18 0 25 -3 6 -5 1 -5 -13z"/>
<path d="M2835 2662 c3 -81 2 -79 32 -107 22 -20 26 -28 17 -42 -7 -12 -8 -26
-1 -44 8 -21 7 -30 -6 -44 -9 -9 -21 -13 -27 -10 -5 3 -10 -2 -10 -12 0 -10
-4 -14 -8 -8 -4 6 -14 11 -22 13 -11 3 -9 -2 5 -16 11 -10 27 -17 36 -14 9 2
20 -1 23 -7 5 -8 13 -8 26 -1 10 5 29 9 42 7 24 -2 25 1 12 58 -7 27 -6 29 9
16 15 -12 17 -11 17 3 0 9 -8 20 -17 24 -10 4 -19 13 -20 20 -3 11 2 14 37 16
25 2 7 21 -20 21 -14 0 -32 5 -40 10 -27 18 -54 78 -51 117 1 27 -3 39 -17 47
-17 9 -18 5 -17 -47z m79 -197 c3 -8 1 -15 -4 -15 -6 0 -10 7 -10 15 0 8 2 15
4 15 2 0 6 -7 10 -15z"/>
<path d="M617 2694 c-4 -4 -7 -19 -6 -33 l0 -26 10 24 c10 26 8 47 -4 35z"/>
<path d="M884 2669 c-3 -6 -1 -16 5 -22 8 -8 11 -5 11 11 0 24 -5 28 -16 11z"/>
<path d="M1330 2669 c0 -5 5 -7 10 -4 6 3 10 8 10 11 0 2 -4 4 -10 4 -5 0 -10
-5 -10 -11z"/>
<path d="M916 2644 c-5 -20 -12 -25 -26 -21 -22 6 -25 0 -10 -23 6 -9 10 -11
10 -3 0 7 7 10 15 7 8 -4 15 -5 15 -3 0 2 4 19 9 37 5 17 6 32 1 32 -4 0 -11
-12 -14 -26z"/>
<path d="M1429 2565 c-2 -33 -11 -61 -24 -76 -13 -14 -13 -18 -2 -28 11 -9 17
-1 31 41 11 35 13 55 6 62 -6 6 -10 6 -11 1z"/>
<path d="M654 2514 c-42 -20 -45 -24 -22 -24 15 0 30 5 33 10 10 16 25 12 19
-5 -4 -9 0 -15 7 -16 8 0 22 -2 31 -4 13 -2 17 2 14 18 -3 12 -5 25 -5 28 -2
18 -32 15 -77 -7z"/>
<path d="M1134 2494 c-16 -13 -17 -15 -1 -10 9 3 30 1 45 -5 25 -10 26 -12 10
-23 -21 -16 -23 -42 -5 -49 9 -3 13 3 13 17 -1 17 4 20 27 18 15 -2 35 2 42 8
8 7 25 10 37 7 16 -4 32 2 52 19 35 31 28 41 -21 26 -41 -12 -133 -12 -133 1
0 13 -46 7 -66 -9z m116 -14 c8 -5 12 -12 8 -15 -9 -9 -48 4 -48 16 0 12 21
11 40 -1z"/>
<path d="M737 2453 c-4 -7 -3 -14 2 -17 5 -3 7 -16 4 -27 -4 -16 -2 -20 8 -17
8 3 14 15 13 27 -1 27 10 27 23 -1 6 -14 12 -18 16 -11 9 15 -22 46 -39 39 -7
-3 -14 0 -17 7 -2 8 -5 8 -10 0z"/>
<path d="M672 2438 c-15 -20 -42 -76 -42 -89 0 -8 4 -8 15 1 8 7 15 21 15 32
0 10 12 30 26 43 19 18 22 25 12 25 -9 0 -20 -6 -26 -12z"/>
<path d="M1225 2389 c-11 -16 -1 -19 13 -3 7 8 8 14 3 14 -5 0 -13 -5 -16 -11z"/>
<path d="M833 2363 c9 -2 23 -2 30 0 6 3 -1 5 -18 5 -16 0 -22 -2 -12 -5z"/>
<path d="M740 2341 c-8 -6 -18 -7 -22 -5 -4 3 -8 0 -8 -5 0 -15 29 -13 65 4
29 13 29 13 5 14 -14 0 -32 -3 -40 -8z"/>
<path d="M2910 2097 c0 -22 40 -78 85 -122 35 -35 43 -62 10 -35 -14 12 -15
10 -10 -12 4 -17 1 -31 -10 -41 -9 -9 -13 -21 -10 -27 9 -15 -8 -12 -33 6 -28
19 -21 33 13 26 42 -7 33 37 -16 84 -22 22 -47 53 -56 69 -21 39 -33 46 -50
29 -10 -10 -26 -12 -54 -8 -39 7 -40 6 -34 -19 6 -22 3 -27 -18 -32 -25 -7
-56 -50 -44 -62 4 -3 -3 -17 -15 -30 -15 -16 -33 -23 -60 -23 -32 0 -39 -3
-36 -17 5 -26 57 -36 98 -17 26 11 59 14 123 11 48 -2 90 -6 93 -10 12 -12 14
-66 3 -72 -15 -10 18 -44 58 -60 19 -8 32 -20 31 -27 -2 -7 7 -17 20 -23 12
-5 22 -13 22 -17 0 -5 7 -8 15 -8 9 0 15 9 15 25 0 36 26 42 58 14 39 -34 63
-46 97 -45 27 1 30 5 37 41 10 58 9 115 -1 115 -5 0 -11 -6 -14 -12 -3 -9 -10
-7 -21 7 -8 11 -16 15 -16 9 0 -6 -6 -11 -14 -11 -8 0 -14 3 -14 6 1 3 -2 13
-6 21 -3 9 -12 38 -19 65 -6 28 -16 48 -22 45 -5 -3 -9 -9 -7 -14 2 -5 -4 -6
-13 -2 -14 5 -15 4 0 -16 16 -24 21 -53 6 -44 -4 3 -6 -7 -3 -22 5 -24 4 -26
-11 -13 -10 7 -17 20 -17 28 0 8 -9 33 -20 55 -11 23 -20 51 -20 63 0 12 -13
31 -31 44 -17 13 -37 37 -44 54 -8 18 -14 28 -15 23 0 -5 -7 -3 -15 4 -12 10
-15 10 -15 -3z m-36 -109 c5 -37 4 -53 -6 -59 -9 -6 -15 1 -20 24 -4 18 -3 33
1 35 5 1 6 14 3 27 -2 14 0 25 6 25 5 0 13 -23 16 -52z m261 -208 c8 -13 -5
-13 -25 0 -13 8 -13 10 2 10 9 0 20 -4 23 -10z"/>
<path d="M3159 2098 c0 -7 -2 -22 -5 -33 -9 -45 -7 -95 5 -109 10 -12 9 -15
-6 -19 -16 -4 -16 -5 -1 -6 10 0 27 9 38 22 l21 22 19 -22 c41 -51 55 -7 18
58 -13 23 -27 38 -35 35 -12 -5 -37 26 -29 35 2 2 -2 10 -10 17 -11 10 -14 10
-15 0z"/>
<path d="M3206 2094 c-6 -16 0 -34 12 -34 4 0 7 11 7 25 0 28 -10 33 -19 9z"/>
<path d="M3281 2060 c0 -38 23 -148 35 -158 8 -9 -2 65 -20 138 -12 49 -14 51
-15 20z"/>
<path d="M3320 1832 l5 -47 3 39 c2 21 0 42 -5 47 -4 4 -6 -13 -3 -39z"/>
<path d="M3317 1590 c-3 -11 -1 -33 3 -48 7 -23 8 -21 9 21 1 50 -3 60 -12 27z"/>
<path d="M3218 1513 c4 -80 -6 -253 -24 -392 -5 -42 -5 -44 12 -30 9 7 23 28
31 46 15 37 17 55 3 33 -17 -28 -19 -4 -7 76 14 88 13 304 -1 313 -6 3 -12 15
-15 26 -2 11 -2 -21 1 -72z"/>
<path d="M800 1431 c0 -6 5 -13 10 -16 6 -3 10 1 10 9 0 9 -4 16 -10 16 -5 0
-10 -4 -10 -9z"/>
<path d="M1350 1075 c-11 -13 -10 -14 4 -9 9 3 16 10 16 15 0 13 -6 11 -20 -6z"/>
<path d="M2990 899 c0 -5 5 -7 10 -4 6 3 10 8 10 11 0 2 -4 4 -10 4 -5 0 -10
-5 -10 -11z"/>
<path d="M890 831 c0 -5 7 -15 17 -22 15 -13 15 -12 4 9 -12 23 -21 28 -21 13z"/>
<path d="M2893 758 c-22 -37 -35 -78 -25 -78 8 1 54 102 48 107 -2 2 -12 -11
-23 -29z"/>
<path d="M2850 628 c-34 -42 -43 -58 -32 -58 5 0 23 20 41 45 36 51 29 61 -9
13z"/>
</g>
</svg>
